<svg width="24" height="24" viewBox="0 0 24 24" fill="none" xmlns="http://www.w3.org/2000/svg">
<g id="check-white">
<path id="minus-square-Bold" d="M15.6 0H8.4C3.768 0 0 3.7692 0 8.4V15.6C0 20.2308 3.768 24 8.4 24H15.6C20.232 24 24 20.2308 24 15.6V8.4C24 3.7692 20.232 0 15.6 0Z" fill="white"/>
<path id="Vector 3 (Stroke)" fill-rule="evenodd" clip-rule="evenodd" d="M17.6485 8.7515C18.1172 9.22013 18.1172 9.97992 17.6485 10.4486L11.6485 16.4486C11.1799 16.9172 10.4201 16.9172 9.95147 16.4486L6.35147 12.8486C5.88284 12.3799 5.88284 11.6201 6.35147 11.1515C6.8201 10.6829 7.5799 10.6829 8.04853 11.1515L10.8 13.903L15.9515 8.7515C16.4201 8.28287 17.1799 8.28287 17.6485 8.7515Z" fill="black"/>
</g>
</svg>
