<svg width="32" height="32" viewBox="0 0 32 32" fill="none" xmlns="http://www.w3.org/2000/svg">
<g id="icon-basic">
<path id="discount-Bold (Stroke)" fill-rule="evenodd" clip-rule="evenodd" d="M29.2245 13.1621L29.2235 13.1611L28.2973 12.2344C27.6932 11.6301 27.3568 10.8184 27.3568 9.96226V8.65938C27.3568 6.44449 25.5531 4.64186 23.3408 4.64186H22.0368C21.1852 4.64186 20.3718 4.30913 19.7636 3.69862C19.7629 3.69793 19.7622 3.69724 19.7615 3.69655L18.8377 2.77405C17.2739 1.20865 14.723 1.20865 13.1592 2.77405L13.1578 2.77547L12.2353 3.69654C12.2345 3.69734 12.2337 3.69815 12.2329 3.69896C11.6283 4.30559 10.816 4.64186 9.96162 4.64186H8.65918C6.44564 4.64186 4.64316 6.4442 4.64316 8.65938V9.96226C4.64316 10.8208 4.30524 11.6286 3.70568 12.2314L3.70379 12.2333L2.7762 13.1629C2.01567 13.9214 1.6 14.9249 1.6 16.0006C1.6 17.0764 2.01581 18.0804 2.77549 18.8391L2.77647 18.8401L3.70271 19.7668C3.70267 19.7667 3.70275 19.7668 3.70271 19.7668C4.30676 20.371 4.64316 21.1828 4.64316 22.0389V23.3418C4.64316 25.5567 6.44694 27.3593 8.65918 27.3593H9.96162C10.8132 27.3593 11.6265 27.692 12.2347 28.3024C12.2354 28.3032 12.2362 28.3039 12.2369 28.3046L13.1612 29.2276C13.9412 30.009 14.9659 30.4 16 30.4C17.0331 30.4 18.0586 30.008 18.8397 29.2267L18.8406 29.2258L19.7631 28.3047C19.7637 28.304 19.7643 28.3034 19.765 28.3027C20.3697 27.6957 21.1823 27.3593 22.0368 27.3593H23.3408C25.5531 27.3593 27.3568 25.5567 27.3568 23.3418V22.0389C27.3568 21.1803 27.6948 20.3726 28.2943 19.7698L28.2972 19.7669L29.2235 18.8401C29.9845 18.0789 30.4 17.0757 30.4 16.0006C30.4 14.9248 29.9842 13.9208 29.2245 13.1621ZM20.8976 29.4329L19.9712 30.358C18.8768 31.4527 17.4384 32 16 32C14.5616 32 13.1232 31.4543 12.0288 30.358L11.1024 29.4329C10.7968 29.1256 10.392 28.9593 9.96162 28.9593H8.65918C5.56318 28.9593 3.04316 26.4403 3.04316 23.3418V22.0389C3.04316 21.6068 2.87519 21.2021 2.57119 20.898L1.64482 19.9712C0.584024 18.9117 0 17.5002 0 16.0006C0 14.501 0.583987 13.0895 1.64639 12.03L2.57119 11.1032C2.87519 10.7975 3.04316 10.3944 3.04316 9.96226V8.65938C3.04316 5.56095 5.56158 3.04186 8.65918 3.04186H9.96162C10.392 3.04186 10.7968 2.87397 11.1008 2.56829L12.0272 1.64324C14.216 -0.547747 17.7808 -0.547747 19.9696 1.64324L20.896 2.56829C21.2016 2.87557 21.6064 3.04186 22.0368 3.04186H23.3408C26.4368 3.04186 28.9568 5.56095 28.9568 8.65938V9.96226C28.9568 10.3944 29.1248 10.7991 29.4288 11.1032L30.3552 12.03C31.416 13.0895 32 14.501 32 16.0006C32 17.5002 31.416 18.9101 30.3552 19.9712L29.4288 20.898C29.1248 21.2037 28.9568 21.6068 28.9568 22.0389V23.3418C28.9568 26.4403 26.4368 28.9593 23.3408 28.9593H22.0368C21.6064 28.9593 21.2016 29.1272 20.8976 29.4329Z" fill="black"/>
<path id="Vector 5 (Stroke)" fill-rule="evenodd" clip-rule="evenodd" d="M21.3656 10.6345C21.678 10.9469 21.678 11.4534 21.3656 11.7658L11.7656 21.3658C11.4532 21.6783 10.9466 21.6783 10.6342 21.3658C10.3218 21.0534 10.3218 20.5469 10.6342 20.2345L20.2342 10.6345C20.5466 10.322 21.0532 10.322 21.3656 10.6345Z" fill="black"/>
<circle id="Ellipse 10" cx="11.9999" cy="12.0001" r="1.6" fill="black"/>
<circle id="Ellipse 11" cx="19.9999" cy="20.0001" r="1.6" fill="black"/>
</g>
</svg>
