<svg width="29" height="32" viewBox="0 0 29 32" fill="none" xmlns="http://www.w3.org/2000/svg">
<g id="icon-best">
<path id="Vector" d="M27.4625 7.24181L27.2062 8.002C27.2062 14.7157 26.6616 19.5649 24.8516 23.0378C23.9626 24.7422 22.7693 26.1665 21.0874 27.3828C19.4056 28.5991 17.2271 29.5994 14.392 30.4156H14.384H14.376C11.5408 29.6074 9.35439 28.5991 7.67252 27.3908C5.99066 26.1825 4.79733 24.7742 3.90834 23.0858C2.10634 19.6529 1.55373 14.8597 1.56174 8.21805H1.56974L1.33749 7.44986L1.55373 8.21805C4.66118 7.33783 7.42425 6.12153 9.6267 4.90523C11.8372 3.68892 13.479 2.49662 14.392 1.6084V1.6004L13.8234 1.04026L14.384 1.6084L14.36 1.5844L14.376 1.62441H14.392L14.368 1.5844L14.384 1.62441H14.44L14.416 0.816204L14.4 1.6164C14.8885 2.11253 15.6093 2.59265 16.4503 3.11278C17.3152 3.64091 18.3724 4.21705 19.5337 4.8012C21.8563 5.96949 24.6434 7.17779 27.1902 8.02601H27.2062L27.2222 8.03401L27.4385 7.26582L27.6948 6.50563C25.244 5.68942 22.513 4.50513 20.2545 3.36884C19.1252 2.8007 18.1001 2.24056 17.2832 1.74444C16.4903 1.26432 15.8336 0.792198 15.5373 0.496124C15.273 0.176044 14.8725 0.008002 14.4561 0H14.432H14.408C13.9915 0 13.5751 0.176044 13.2948 0.464116V0.472118L13.8634 1.03226L13.3028 0.464116C12.574 1.1923 10.9962 2.34459 8.88988 3.50488C6.77553 4.66517 4.11657 5.84146 1.15328 6.67367L1.38554 7.44186L1.1693 6.67367C0.480534 6.86572 0 7.49787 0 8.21005C0 14.9317 0.51257 19.957 2.53081 23.822C3.52392 25.7184 4.90145 27.3428 6.77553 28.6872C8.64961 30.0315 11.0042 31.1038 13.9675 31.944C14.1117 31.984 14.2558 32 14.4 32C14.5442 32 14.6883 31.976 14.8325 31.944C17.7958 31.0958 20.1504 30.0235 22.0245 28.6712C23.8986 27.3188 25.2841 25.6784 26.2692 23.7659C28.2874 19.861 28.792 14.7877 28.8 7.994C28.8 7.30583 28.3515 6.69767 27.7028 6.48162H27.6868L27.6707 6.47362L27.4545 7.24181H27.4625Z" fill="black"/>
<path id="Vector_2" fill-rule="evenodd" clip-rule="evenodd" d="M18.1678 13.8321C18.4798 14.1441 18.4798 14.6481 18.1678 14.9601L14.1678 18.9601C13.8558 19.2721 13.3518 19.2721 13.0398 18.9601L10.6398 16.5601C10.3278 16.2481 10.3278 15.7441 10.6398 15.4321C10.9518 15.1201 11.4558 15.1201 11.7678 15.4321L13.5998 17.2641L17.0318 13.8321C17.3438 13.5201 17.8478 13.5201 18.1598 13.8321H18.1678Z" fill="#2FC977"/>
</g>
</svg>
