<svg width="24" height="24" viewBox="0 0 24 24" fill="none" xmlns="http://www.w3.org/2000/svg">
<g id="Icon ionic-ios-information-circle 1" clip-path="url(#clip0_104_420)">
<path id="Icon ionic-ios-information-circle" d="M12 0C9.62663 0 7.30655 0.703788 5.33316 2.02237C3.35977 3.34094 1.8217 5.21509 0.913451 7.4078C0.00519959 9.60051 -0.232441 12.0133 0.230582 14.3411C0.693605 16.6689 1.83649 18.8071 3.51472 20.4853C5.19295 22.1635 7.33115 23.3064 9.65892 23.7694C11.9867 24.2324 14.3995 23.9948 16.5922 23.0866C18.7849 22.1783 20.6591 20.6402 21.9776 18.6668C23.2962 16.6935 24 14.3734 24 12C24 8.8174 22.7357 5.76515 20.4853 3.51472C18.2348 1.26428 15.1826 0 12 0ZM13.1 17.5387H10.892V9.22533H13.1V17.5387ZM11.9987 8.32C11.7732 8.3106 11.5554 8.23516 11.3724 8.10305C11.1894 7.97094 11.0492 7.78799 10.9693 7.57692C10.8894 7.36584 10.8732 7.13594 10.9229 6.91576C10.9725 6.69558 11.0857 6.49482 11.2484 6.33842C11.4111 6.18202 11.6162 6.07687 11.8382 6.03602C12.0602 5.99518 12.2892 6.02043 12.497 6.10866C12.7047 6.19688 12.882 6.34419 13.0067 6.53228C13.1315 6.72037 13.1982 6.94097 13.1987 7.16667C13.1983 7.32226 13.1665 7.47618 13.1051 7.61918C13.0438 7.76219 12.9543 7.89135 12.8419 7.99892C12.7294 8.10649 12.5964 8.19025 12.4509 8.2452C12.3053 8.30014 12.1501 8.32513 11.9947 8.31867L11.9987 8.32Z" fill="#FAFAFA"/>
</g>
<defs>
<clipPath id="clip0_104_420">
<rect width="24" height="24" fill="white"/>
</clipPath>
</defs>
</svg>
