<svg width="143" height="23" viewBox="0 0 143 23" fill="none" xmlns="http://www.w3.org/2000/svg">
<g clip-path="url(#clip0_33_147)">
<path d="M138.282 0H124.562C121.956 0 119.844 2.09804 119.844 4.6861V18.3139C119.844 20.902 121.956 23 124.562 23H138.282C140.888 23 143 20.902 143 18.3139V4.6861C143 2.09804 140.888 0 138.282 0Z" fill="black"/>
<path d="M122.962 5.16626H126.539V7.5847H122.962V5.16626ZM122.962 8.69373H126.539V17.9667H122.962V8.69373Z" fill="white"/>
<path d="M128.81 5.16626H134.727C135.893 5.16626 136.834 5.32299 137.553 5.63844C138.27 5.95191 138.863 6.40425 139.333 6.9915C139.802 7.57875 140.142 8.26321 140.351 9.04291C140.563 9.8226 140.667 10.6499 140.667 11.5229C140.667 12.8898 140.509 13.9512 140.198 14.7051C139.884 15.459 139.449 16.0899 138.891 16.5998C138.334 17.1097 137.737 17.4489 137.098 17.6176C136.225 17.8497 135.434 17.9667 134.725 17.9667H128.808V5.16626H128.81ZM132.793 8.06482V15.0583H133.768C134.601 15.0583 135.192 14.967 135.544 14.7825C135.895 14.6 136.171 14.2786 136.371 13.8223C136.57 13.3659 136.67 12.6239 136.67 11.6002C136.67 10.2452 136.447 9.31669 136.003 8.81475C135.558 8.3148 134.819 8.06482 133.788 8.06482H132.795H132.793Z" fill="white"/>
<path d="M0 13.7309L3.78907 13.4948C3.87097 14.1059 4.03875 14.5721 4.29042 14.8916C4.69989 15.4094 5.28712 15.6693 6.04813 15.6693C6.61739 15.6693 7.05482 15.5363 7.36242 15.2725C7.67002 15.0086 7.82382 14.7011 7.82382 14.3519C7.82382 14.0027 7.67801 13.723 7.3844 13.4611C7.09078 13.1992 6.41166 12.9512 5.34505 12.7191C3.59932 12.3303 2.35294 11.8105 1.60991 11.1657C0.858883 10.5189 0.485369 9.69557 0.485369 8.69566C0.485369 8.03897 0.677119 7.41601 1.06062 6.83074C1.44412 6.24547 2.02137 5.7852 2.79237 5.45189C3.56336 5.1166 4.61999 4.94995 5.96025 4.94995C7.60611 4.94995 8.86247 5.2535 9.72735 5.86257C10.5922 6.47165 11.1056 7.43783 11.2693 8.7651L7.51622 8.98333C7.41635 8.40799 7.20663 7.98739 6.88704 7.72551C6.56746 7.46362 6.12603 7.33268 5.56476 7.33268C5.10137 7.33268 4.75382 7.4299 4.51812 7.62432C4.28443 7.81875 4.16658 8.05683 4.16658 8.33656C4.16658 8.54091 4.26246 8.72344 4.4562 8.88612C4.64396 9.05476 5.08938 9.21149 5.79247 9.3583C7.5322 9.73128 8.77858 10.1082 9.5316 10.4892C10.2846 10.8701 10.8319 11.3442 11.1755 11.9077C11.519 12.4711 11.6888 13.104 11.6888 13.8024C11.6888 14.6237 11.4611 15.3796 11.0037 16.072C10.5463 16.7644 9.90711 17.2902 9.08818 17.6473C8.26725 18.0044 7.23259 18.1849 5.98621 18.1849C3.79506 18.1849 2.27704 17.7663 1.43214 16.9271C0.589234 16.0879 0.109857 15.0245 0 13.7309Z" fill="black"/>
<path d="M13.2987 8.69367H16.6383V10.0467C17.1197 9.4813 17.6051 9.08054 18.0945 8.84246C18.5838 8.60439 19.175 8.48535 19.8681 8.48535C20.6132 8.48535 21.2024 8.61629 21.6378 8.87817C22.0713 9.14006 22.4268 9.5309 22.7025 10.0487C23.2637 9.4436 23.7771 9.03094 24.2385 8.8127C24.6999 8.59447 25.2711 8.48535 25.9502 8.48535C26.9509 8.48535 27.7319 8.78096 28.2932 9.37218C28.8545 9.9634 29.1361 10.8879 29.1361 12.1438V17.9667H25.5508V12.6854C25.5508 12.2668 25.4689 11.9553 25.3051 11.7509C25.0654 11.4315 24.7678 11.2708 24.4122 11.2708C23.9908 11.2708 23.6532 11.4216 23.3956 11.7252C23.1379 12.0287 23.0101 12.5148 23.0101 13.1834V17.9687H19.4227V12.862C19.4227 12.4552 19.3988 12.1775 19.3528 12.0327C19.2769 11.8005 19.1431 11.6121 18.9553 11.4692C18.7676 11.3264 18.5459 11.255 18.2942 11.255C17.8827 11.255 17.5452 11.4097 17.2795 11.7172C17.0139 12.0267 16.882 12.5326 16.882 13.2369V17.9687H13.2967V8.69565L13.2987 8.69367Z" fill="black"/>
<path d="M34.2933 11.6974L30.8738 11.3403C31.0036 10.7471 31.1894 10.2788 31.4311 9.93959C31.6748 9.59835 32.0243 9.30274 32.4817 9.05276C32.8093 8.87222 33.2607 8.73335 33.8359 8.63415C34.4092 8.53495 35.0304 8.48535 35.6995 8.48535C36.7721 8.48535 37.633 8.54487 38.2842 8.66391C38.9353 8.78294 39.4766 9.03292 39.91 9.40987C40.2156 9.67176 40.4553 10.0428 40.6311 10.5229C40.8069 11.003 40.8948 11.4613 40.8948 11.8978V15.9926C40.8948 16.4291 40.9227 16.7704 40.9787 17.0183C41.0346 17.2663 41.1564 17.5818 41.3442 17.9647H37.9865C37.8507 17.7266 37.7628 17.5441 37.7229 17.4191C37.6809 17.2941 37.641 17.0977 37.599 16.8299C37.1297 17.2782 36.6643 17.5977 36.2009 17.7901C35.5677 18.046 34.8326 18.175 33.9937 18.175C32.8812 18.175 32.0343 17.9191 31.457 17.4072C30.8798 16.8953 30.5922 16.2644 30.5922 15.5125C30.5922 14.8082 30.7999 14.2289 31.2154 13.7746C31.6308 13.3203 32.3998 12.983 33.5184 12.7628C34.8606 12.4949 35.7295 12.3065 36.129 12.1993C36.5284 12.0922 36.9499 11.9513 37.3953 11.7767C37.3953 11.3403 37.3034 11.0347 37.1237 10.8601C36.9419 10.6856 36.6223 10.5983 36.1649 10.5983C35.5797 10.5983 35.1402 10.6915 34.8466 10.878C34.6189 11.0228 34.4332 11.2966 34.2933 11.6994V11.6974ZM37.3953 13.5663C36.904 13.7408 36.3906 13.8956 35.8573 14.0285C35.1303 14.221 34.6709 14.4094 34.4771 14.5959C34.2774 14.7884 34.1775 15.0066 34.1775 15.2506C34.1775 15.5304 34.2754 15.7585 34.4711 15.9371C34.6669 16.1156 34.9565 16.2029 35.336 16.2029C35.7155 16.2029 36.105 16.1077 36.4485 15.9153C36.7921 15.7228 37.0338 15.4887 37.1776 15.2129C37.3214 14.9372 37.3933 14.5761 37.3933 14.1337V13.5663H37.3953Z" fill="black"/>
<path d="M42.8383 8.69367H46.1879V10.2134C46.5095 9.55669 46.843 9.10236 47.1846 8.85635C47.5282 8.60836 47.9516 8.48535 48.455 8.48535C48.9583 8.48535 49.5595 8.64804 50.1867 8.9734L49.0801 11.5049C48.6587 11.3303 48.3251 11.243 48.0774 11.243C47.6081 11.243 47.2445 11.4355 46.9869 11.8184C46.6173 12.36 46.4336 13.3718 46.4336 14.8558V17.9647H42.8383V8.69168V8.69367Z" fill="black"/>
<path d="M55.4939 5.16617V8.69364H57.4633V11.2946H55.4939V14.58C55.4939 14.9748 55.5318 15.2367 55.6077 15.3637C55.7256 15.5621 55.9293 15.6593 56.2229 15.6593C56.4866 15.6593 56.8561 15.5839 57.3295 15.4331L57.5931 17.8853C56.7083 18.0778 55.8814 18.173 55.1144 18.173C54.2235 18.173 53.5664 18.0599 53.1449 17.8337C52.7235 17.6076 52.4119 17.2623 52.2081 16.8001C52.0064 16.3378 51.9045 15.5899 51.9045 14.5542V11.2926H50.5862V8.69166H51.9045V6.98942L55.4899 5.16418L55.4939 5.16617Z" fill="black"/>
<path d="M59.1211 21.4922V8.6937H62.4707V10.0646C62.9341 9.48926 63.3576 9.09843 63.7451 8.89408C64.2664 8.62029 64.8436 8.4834 65.4768 8.4834C66.7252 8.4834 67.6899 8.95756 68.373 9.90589C69.0562 10.8542 69.3977 12.0267 69.3977 13.4254C69.3977 14.967 69.0262 16.1454 68.2812 16.9569C67.5361 17.7683 66.5954 18.175 65.4588 18.175C64.9075 18.175 64.4062 18.0818 63.9508 17.8953C63.4974 17.7088 63.0899 17.433 62.7324 17.066V21.4922H59.1191H59.1211ZM62.7064 13.356C62.7064 14.0901 62.8622 14.6337 63.1718 14.9888C63.4814 15.3439 63.8749 15.5205 64.3503 15.5205C64.7657 15.5205 65.1153 15.3499 65.3969 15.0106C65.6785 14.6694 65.8184 14.092 65.8184 13.2766C65.8184 12.5267 65.6726 11.9752 65.3789 11.622C65.0853 11.2709 64.7278 11.0943 64.3063 11.0943C63.8489 11.0943 63.4674 11.2728 63.1638 11.626C62.8582 11.9811 62.7064 12.5565 62.7064 13.354V13.356Z" fill="black"/>
<path d="M70.9777 5.16626H74.555V9.88014C75.0404 9.38018 75.5237 9.02109 76.0051 8.80682C76.4865 8.59255 77.0538 8.48343 77.7109 8.48343C78.6836 8.48343 79.4506 8.77706 80.0099 9.36431C80.5692 9.95156 80.8488 10.8543 80.8488 12.0704V17.9628H77.2535V12.864C77.2535 12.2827 77.1456 11.87 76.9279 11.628C76.7102 11.386 76.4066 11.2649 76.0131 11.2649C75.5797 11.2649 75.2281 11.4276 74.9585 11.753C74.6888 12.0784 74.555 12.6636 74.555 13.5068V17.9588H70.9777V5.16626Z" fill="black"/>
<path d="M82.307 13.356C82.307 11.9414 82.7884 10.7768 83.7491 9.86023C84.7099 8.94365 86.0082 8.48535 87.6441 8.48535C89.5136 8.48535 90.9258 9.023 91.8806 10.1003C92.6476 10.9673 93.0331 12.0346 93.0331 13.3044C93.0331 14.7308 92.5577 15.8994 91.6049 16.81C90.6521 17.7207 89.3359 18.177 87.654 18.177C86.154 18.177 84.9416 17.798 84.0148 17.0422C82.8783 16.1057 82.309 14.8777 82.309 13.3579L82.307 13.356ZM85.8923 13.348C85.8923 14.1753 86.0601 14.7864 86.3977 15.1812C86.7352 15.578 87.1587 15.7744 87.668 15.7744C88.1774 15.7744 88.6068 15.58 88.9384 15.1891C89.2699 14.8003 89.4357 14.1734 89.4357 13.3123C89.4357 12.5088 89.268 11.9116 88.9344 11.5188C88.6008 11.126 88.1874 10.9296 87.694 10.9296C87.1727 10.9296 86.7412 11.128 86.4017 11.5268C86.0621 11.9255 85.8923 12.5326 85.8923 13.348Z" fill="black"/>
<path d="M94.527 8.6937H97.8587V10.2035C98.3561 9.58648 98.8614 9.14604 99.3707 8.88019C99.8801 8.61632 100.501 8.4834 101.234 8.4834C102.225 8.4834 103 8.77504 103.559 9.36031C104.119 9.94557 104.398 10.8483 104.398 12.0704V17.9627H100.803V12.864C100.803 12.2827 100.695 11.87 100.477 11.628C100.26 11.3859 99.956 11.2649 99.5625 11.2649C99.1291 11.2649 98.7775 11.4276 98.5079 11.753C98.2382 12.0783 98.1044 12.6636 98.1044 13.5068V17.9588H94.527V8.68576V8.6937Z" fill="black"/>
<path d="M116.658 14.2111H109.486C109.55 14.7825 109.705 15.207 109.951 15.4848C110.297 15.8855 110.748 16.0879 111.305 16.0879C111.657 16.0879 111.99 16.0006 112.308 15.826C112.502 15.7149 112.709 15.5205 112.931 15.2408L116.457 15.5641C115.917 16.4946 115.266 17.1632 114.505 17.5679C113.744 17.9727 112.65 18.175 111.227 18.175C109.991 18.175 109.018 18.0024 108.309 17.6552C107.6 17.308 107.013 16.7585 106.547 16.0046C106.082 15.2507 105.848 14.3638 105.848 13.3461C105.848 11.8978 106.316 10.7233 107.251 9.82852C108.185 8.93177 109.476 8.4834 111.122 8.4834C112.458 8.4834 113.512 8.68378 114.285 9.08652C115.058 9.48926 115.648 10.0706 116.053 10.8324C116.457 11.5942 116.66 12.5882 116.66 13.8103V14.2111H116.658ZM113.019 12.5088C112.949 11.8224 112.763 11.3304 112.462 11.0328C112.16 10.7352 111.763 10.5884 111.271 10.5884C110.702 10.5884 110.249 10.8126 109.909 11.2609C109.691 11.5407 109.554 11.9573 109.496 12.5088H113.021H113.019Z" fill="black"/>
</g>
<defs>
<clipPath id="clip0_33_147">
<rect width="143" height="23" fill="white"/>
</clipPath>
</defs>
</svg>
